<svg xmlns="http://www.w3.org/2000/svg" width="169.64999999999998" height="35" viewBox="0 0 169.64999999999998 35"><rect class="svg__rect" x="0" y="0" width="66.85" height="35" fill="#C1D72F"/><rect class="svg__rect" x="64.85" y="0" width="104.8" height="35" fill="#FF6A00"/><path class="svg__text" d="M15.00 22L13.46 22L16.68 13.47L18.01 13.47L21.24 22L19.69 22L18.99 20.01L15.69 20.01L15.00 22ZM17.34 15.28L16.10 18.82L18.58 18.82L17.34 15.28ZM24.59 19.57L24.59 19.57L26.06 19.57Q26.06 20.25 26.40 20.59Q26.74 20.93 27.38 20.93L27.38 20.93Q27.98 20.93 28.33 20.54Q28.68 20.14 28.68 19.45L28.68 19.45L28.68 13.47L30.16 13.47L30.16 19.45Q30.16 20.68 29.40 21.40Q28.63 22.12 27.38 22.12L27.38 22.12Q26.04 22.12 25.31 21.44Q24.59 20.77 24.59 19.57ZM35.62 22L34.08 22L37.30 13.47L38.63 13.47L41.86 22L40.31 22L39.62 20.01L36.31 20.01L35.62 22ZM37.97 15.28L36.73 18.82L39.20 18.82L37.97 15.28ZM46.91 22L45.19 22L47.83 17.70L45.25 13.47L46.96 13.47L48.75 16.55L50.55 13.47L52.26 13.47L49.68 17.70L52.31 22L50.59 22L48.75 18.87L46.91 22Z" fill="#FFFFFF"/><path class="svg__text" d="M81.42 22L79.04 22L79.04 13.60L82.88 13.60Q84.02 13.60 84.86 13.98Q85.70 14.35 86.16 15.06Q86.61 15.76 86.61 16.71L86.61 16.71Q86.61 17.66 86.16 18.35Q85.70 19.05 84.86 19.42Q84.02 19.80 82.88 19.80L82.88 19.80L81.42 19.80L81.42 22ZM81.42 15.47L81.42 17.93L82.74 17.93Q83.47 17.93 83.84 17.61Q84.21 17.29 84.21 16.71L84.21 16.71Q84.21 16.12 83.84 15.80Q83.47 15.47 82.74 15.47L82.74 15.47L81.42 15.47ZM93.74 22L91.37 22L91.37 13.60L95.21 13.60Q96.35 13.60 97.19 13.98Q98.03 14.35 98.49 15.06Q98.94 15.76 98.94 16.71L98.94 16.71Q98.94 17.62 98.51 18.30Q98.09 18.98 97.30 19.36L97.30 19.36L99.11 22L96.56 22L95.04 19.77L93.74 19.77L93.74 22ZM93.74 15.47L93.74 17.93L95.06 17.93Q95.80 17.93 96.17 17.61Q96.54 17.29 96.54 16.71L96.54 16.71Q96.54 16.12 96.17 15.79Q95.80 15.47 95.06 15.47L95.06 15.47L93.74 15.47ZM103.30 17.80L103.30 17.80Q103.30 16.55 103.91 15.55Q104.51 14.56 105.57 14.00Q106.64 13.43 107.97 13.43L107.97 13.43Q109.30 13.43 110.36 14.00Q111.42 14.56 112.03 15.55Q112.64 16.55 112.64 17.80L112.64 17.80Q112.64 19.05 112.03 20.04Q111.42 21.04 110.36 21.60Q109.30 22.17 107.97 22.17L107.97 22.17Q106.64 22.17 105.57 21.60Q104.51 21.04 103.91 20.04Q103.30 19.05 103.30 17.80ZM105.70 17.80L105.70 17.80Q105.70 18.51 106.00 19.05Q106.30 19.60 106.82 19.90Q107.33 20.20 107.97 20.20L107.97 20.20Q108.60 20.20 109.12 19.90Q109.64 19.60 109.93 19.05Q110.23 18.51 110.23 17.80L110.23 17.80Q110.23 17.09 109.93 16.54Q109.64 16 109.12 15.70Q108.60 15.40 107.97 15.40L107.97 15.40Q107.33 15.40 106.81 15.70Q106.30 16 106.00 16.54Q105.70 17.09 105.70 17.80ZM119.56 22L117.36 22L117.36 13.60L119.32 13.60L122.27 18.45L125.16 13.60L127.11 13.60L127.13 22L124.95 22L124.93 17.55L122.77 21.17L121.71 21.17L119.56 17.67L119.56 22ZM134.67 22L132.29 22L132.29 13.60L134.67 13.60L134.67 22ZM139.26 21.24L139.26 21.24L140.04 19.49Q140.60 19.86 141.35 20.09Q142.09 20.32 142.81 20.32L142.81 20.32Q144.18 20.32 144.18 19.64L144.18 19.64Q144.18 19.28 143.79 19.11Q143.40 18.93 142.54 18.74L142.54 18.74Q141.59 18.53 140.95 18.30Q140.32 18.06 139.86 17.55Q139.41 17.03 139.41 16.16L139.41 16.16Q139.41 15.39 139.83 14.77Q140.24 14.15 141.08 13.79Q141.91 13.43 143.12 13.43L143.12 13.43Q143.95 13.43 144.75 13.62Q145.56 13.80 146.17 14.17L146.17 14.17L145.44 15.93Q144.24 15.28 143.11 15.28L143.11 15.28Q142.40 15.28 142.08 15.49Q141.76 15.70 141.76 16.04L141.76 16.04Q141.76 16.37 142.14 16.54Q142.52 16.71 143.37 16.89L143.37 16.89Q144.33 17.10 144.96 17.33Q145.59 17.56 146.06 18.07Q146.52 18.58 146.52 19.46L146.52 19.46Q146.52 20.21 146.10 20.83Q145.68 21.44 144.84 21.80Q144.00 22.17 142.80 22.17L142.80 22.17Q141.78 22.17 140.82 21.92Q139.86 21.67 139.26 21.24ZM157.84 22L151.10 22L151.10 13.60L157.69 13.60L157.69 15.44L153.45 15.44L153.45 16.85L157.18 16.85L157.18 18.63L153.45 18.63L153.45 20.17L157.84 20.17L157.84 22Z" fill="#FFFFFF" x="77.85"/></svg>