<svg xmlns="http://www.w3.org/2000/svg" width="231.18" height="35" viewBox="0 0 231.18 35"><rect class="svg__rect" x="0" y="0" width="85.83000000000001" height="35" fill="#18FC07"/><rect class="svg__rect" x="83.83000000000001" y="0" width="147.35" height="35" fill="#63F56B"/><path class="svg__text" d="M15.00 22L13.46 22L16.68 13.47L18.01 13.47L21.24 22L19.69 22L18.99 20.01L15.69 20.01L15.00 22ZM17.34 15.28L16.10 18.82L18.58 18.82L17.34 15.28ZM30.55 22L25.19 22L25.19 13.47L26.67 13.47L26.67 20.82L30.55 20.82L30.55 22ZM37.78 22L34.67 22L34.67 13.47L37.60 13.47Q39.04 13.47 39.80 14.05Q40.56 14.63 40.56 15.78L40.56 15.78Q40.56 16.36 40.24 16.83Q39.92 17.30 39.31 17.56L39.31 17.56Q40.00 17.75 40.38 18.26Q40.76 18.78 40.76 19.51L40.76 19.51Q40.76 20.71 39.99 21.36Q39.22 22 37.78 22L37.78 22ZM36.15 18.15L36.15 20.82L37.80 20.82Q38.50 20.82 38.89 20.47Q39.28 20.13 39.28 19.51L39.28 19.51Q39.28 18.18 37.92 18.15L37.92 18.15L36.15 18.15ZM36.15 14.66L36.15 17.06L37.61 17.06Q38.30 17.06 38.69 16.75Q39.08 16.43 39.08 15.86L39.08 15.86Q39.08 15.23 38.72 14.95Q38.36 14.66 37.60 14.66L37.60 14.66L36.15 14.66ZM50.81 22L45.23 22L45.23 13.47L50.77 13.47L50.77 14.66L46.71 14.66L46.71 17.02L50.22 17.02L50.22 18.19L46.71 18.19L46.71 20.82L50.81 20.82L50.81 22ZM56.49 22L55.00 22L55.00 13.47L58.00 13.47Q59.48 13.47 60.28 14.13Q61.09 14.79 61.09 16.05L61.09 16.05Q61.09 16.90 60.67 17.48Q60.26 18.06 59.52 18.37L59.52 18.37L61.44 21.92L61.44 22L59.85 22L58.14 18.71L56.49 18.71L56.49 22ZM56.49 14.66L56.49 17.52L58.01 17.52Q58.76 17.52 59.18 17.15Q59.60 16.77 59.60 16.11L59.60 16.11Q59.60 15.43 59.21 15.05Q58.82 14.68 58.05 14.66L58.05 14.66L56.49 14.66ZM67.16 14.66L64.53 14.66L64.53 13.47L71.29 13.47L71.29 14.66L68.63 14.66L68.63 22L67.16 22L67.16 14.66Z" fill="#FFFFFF"/><path class="svg__text" d="M97.59 17.80L97.59 17.80Q97.59 16.54 98.19 15.54Q98.79 14.55 99.85 13.99Q100.92 13.43 102.27 13.43L102.27 13.43Q103.44 13.43 104.38 13.83Q105.32 14.22 105.94 14.97L105.94 14.97L104.43 16.33Q103.58 15.40 102.41 15.40L102.41 15.40Q102.39 15.40 102.39 15.40L102.39 15.40Q101.31 15.40 100.65 16.06Q99.99 16.71 99.99 17.80L99.99 17.80Q99.99 18.50 100.29 19.04Q100.59 19.59 101.13 19.89Q101.67 20.20 102.37 20.20L102.37 20.20Q103.05 20.20 103.65 19.93L103.65 19.93L103.65 17.62L105.75 17.62L105.75 21.10Q105.03 21.61 104.09 21.89Q103.16 22.17 102.22 22.17L102.22 22.17Q100.90 22.17 99.84 21.61Q98.79 21.05 98.19 20.05Q97.59 19.06 97.59 17.80ZM113.12 22L110.74 22L110.74 13.60L113.12 13.60L113.12 22ZM124.68 22L118.29 22L118.29 13.60L120.67 13.60L120.67 20.11L124.68 20.11L124.68 22ZM131.29 22L129.10 22L129.10 13.60L131.05 13.60L134.01 18.45L136.89 13.60L138.84 13.60L138.86 22L136.68 22L136.66 17.55L134.50 21.17L133.44 21.17L131.29 17.67L131.29 22ZM146.40 22L144.03 22L144.03 13.60L146.40 13.60L146.40 22ZM153.37 15.48L150.79 15.48L150.79 13.60L158.31 13.60L158.31 15.48L155.74 15.48L155.74 22L153.37 22L153.37 15.48ZM166.65 22L162.68 22L162.68 13.60L166.65 13.60Q168.04 13.60 169.10 14.12Q170.17 14.63 170.76 15.58Q171.35 16.53 171.35 17.80L171.35 17.80Q171.35 19.07 170.76 20.02Q170.17 20.97 169.10 21.48Q168.04 22 166.65 22L166.65 22ZM165.06 15.50L165.06 20.10L166.56 20.10Q167.64 20.10 168.29 19.49Q168.95 18.88 168.95 17.80L168.95 17.80Q168.95 16.72 168.29 16.11Q167.64 15.50 166.56 15.50L166.56 15.50L165.06 15.50ZM178.46 22L176.08 22L176.08 13.60L178.46 13.60L178.46 22ZM185.96 22L183.63 22L183.63 13.60L185.59 13.60L189.30 18.07L189.30 13.60L191.62 13.60L191.62 22L189.67 22L185.96 17.52L185.96 22ZM196.36 17.80L196.36 17.80Q196.36 16.55 196.96 15.55Q197.56 14.56 198.63 14.00Q199.69 13.43 201.02 13.43L201.02 13.43Q202.35 13.43 203.41 14.00Q204.48 14.56 205.08 15.55Q205.69 16.55 205.69 17.80L205.69 17.80Q205.69 19.05 205.08 20.04Q204.48 21.04 203.42 21.60Q202.36 22.17 201.02 22.17L201.02 22.17Q199.69 22.17 198.63 21.60Q197.56 21.04 196.96 20.04Q196.36 19.05 196.36 17.80ZM198.75 17.80L198.75 17.80Q198.75 18.51 199.05 19.05Q199.36 19.60 199.87 19.90Q200.39 20.20 201.02 20.20L201.02 20.20Q201.66 20.20 202.17 19.90Q202.69 19.60 202.99 19.05Q203.29 18.51 203.29 17.80L203.29 17.80Q203.29 17.09 202.99 16.54Q202.69 16 202.17 15.70Q201.66 15.40 201.02 15.40L201.02 15.40Q200.38 15.40 199.87 15.70Q199.36 16 199.05 16.54Q198.75 17.09 198.75 17.80ZM213.00 22L209.41 13.60L211.98 13.60L214.26 19.07L216.59 13.60L218.94 13.60L215.34 22L213.00 22Z" fill="#FFFFFF" x="96.83000000000001"/></svg>