<svg xmlns="http://www.w3.org/2000/svg" width="71.9" height="35" viewBox="0 0 71.9 35"><rect class="svg__rect" x="0" y="0" width="71.9" height="35" fill="#17EF07"/><rect class="svg__rect" x="71.9" y="0" width="0" height="35" fill="#389AD5"/><path class="svg__text" d="M15.00 22L13.46 22L16.68 13.47L18.01 13.47L21.24 22L19.69 22L18.99 20.01L15.69 20.01L15.00 22ZM17.34 15.28L16.10 18.82L18.58 18.82L17.34 15.28ZM26.29 22L24.56 22L27.21 17.70L24.62 13.47L26.33 13.47L28.13 16.55L29.92 13.47L31.63 13.47L29.05 17.70L31.69 22L29.96 22L28.13 18.87L26.29 22ZM37.34 22L35.86 22L35.86 13.47L37.34 13.47L37.34 22ZM41.88 18.00L41.88 18.00L41.88 17.52Q41.88 16.28 42.32 15.32Q42.76 14.37 43.57 13.86Q44.38 13.35 45.42 13.35Q46.46 13.35 47.27 13.85Q48.07 14.35 48.51 15.29Q48.95 16.23 48.96 17.48L48.96 17.48L48.96 17.96Q48.96 19.21 48.52 20.16Q48.09 21.10 47.28 21.61Q46.48 22.12 45.43 22.12L45.43 22.12Q44.39 22.12 43.58 21.61Q42.77 21.10 42.33 20.17Q41.89 19.23 41.88 18.00ZM43.36 17.46L43.36 17.96Q43.36 19.36 43.91 20.13Q44.46 20.90 45.43 20.90L45.43 20.90Q46.41 20.90 46.94 20.15Q47.48 19.40 47.48 17.96L47.48 17.96L47.48 17.51Q47.48 16.09 46.94 15.34Q46.40 14.58 45.42 14.58L45.42 14.58Q44.46 14.58 43.92 15.33Q43.37 16.09 43.36 17.46L43.36 17.46ZM52.99 19.42L52.99 19.42L54.47 19.42Q54.47 20.15 54.95 20.55Q55.43 20.95 56.33 20.95L56.33 20.95Q57.10 20.95 57.49 20.63Q57.88 20.32 57.88 19.80L57.88 19.80Q57.88 19.24 57.49 18.94Q57.09 18.63 56.06 18.32Q55.03 18.01 54.42 17.63L54.42 17.63Q53.25 16.90 53.25 15.72L53.25 15.72Q53.25 14.69 54.09 14.02Q54.93 13.35 56.28 13.35L56.28 13.35Q57.17 13.35 57.86 13.68Q58.56 14.01 58.96 14.61Q59.36 15.22 59.36 15.96L59.36 15.96L57.88 15.96Q57.88 15.29 57.46 14.91Q57.04 14.54 56.26 14.54L56.26 14.54Q55.54 14.54 55.14 14.85Q54.73 15.16 54.73 15.71L54.73 15.71Q54.73 16.18 55.17 16.50Q55.60 16.81 56.60 17.10Q57.59 17.40 58.20 17.78Q58.80 18.16 59.08 18.65Q59.36 19.13 59.36 19.79L59.36 19.79Q59.36 20.86 58.55 21.49Q57.73 22.12 56.33 22.12L56.33 22.12Q55.40 22.12 54.63 21.77Q53.85 21.43 53.42 20.83Q52.99 20.22 52.99 19.42Z" fill="#FFFFFF"/><path class="svg__text" d="" fill="#FFFFFF" x="84.9"/></svg>