<svg xmlns="http://www.w3.org/2000/svg" width="155.76" height="35" viewBox="0 0 155.76 35"><rect class="svg__rect" x="0" y="0" width="96.02" height="35" fill="#31C4F3"/><rect class="svg__rect" x="94.02" y="0" width="61.739999999999995" height="35" fill="#389AD5"/><path class="svg__text" d="M13.95 18.19L13.95 18.19L13.95 17.39Q13.95 16.19 14.38 15.27Q14.80 14.35 15.60 13.85Q16.40 13.35 17.45 13.35L17.45 13.35Q18.86 13.35 19.73 14.12Q20.59 14.89 20.73 16.29L20.73 16.29L19.25 16.29Q19.14 15.37 18.71 14.96Q18.28 14.55 17.45 14.55L17.45 14.55Q16.48 14.55 15.97 15.26Q15.45 15.96 15.44 17.33L15.44 17.33L15.44 18.09Q15.44 19.47 15.93 20.20Q16.43 20.92 17.38 20.92L17.38 20.92Q18.25 20.92 18.69 20.53Q19.13 20.14 19.25 19.22L19.25 19.22L20.73 19.22Q20.60 20.59 19.72 21.35Q18.84 22.12 17.38 22.12L17.38 22.12Q16.36 22.12 15.59 21.63Q14.81 21.15 14.39 20.26Q13.97 19.37 13.95 18.19ZM26.52 22L25.04 22L25.04 13.47L28.04 13.47Q29.52 13.47 30.32 14.13Q31.12 14.79 31.12 16.05L31.12 16.05Q31.12 16.90 30.71 17.48Q30.30 18.06 29.56 18.37L29.56 18.37L31.47 21.92L31.47 22L29.89 22L28.17 18.71L26.52 18.71L26.52 22ZM26.52 14.66L26.52 17.52L28.05 17.52Q28.80 17.52 29.22 17.15Q29.64 16.77 29.64 16.11L29.64 16.11Q29.64 15.43 29.25 15.05Q28.86 14.68 28.09 14.66L28.09 14.66L26.52 14.66ZM41.09 22L35.52 22L35.52 13.47L41.05 13.47L41.05 14.66L37.00 14.66L37.00 17.02L40.50 17.02L40.50 18.19L37.00 18.19L37.00 20.82L41.09 20.82L41.09 22ZM46.07 22L44.53 22L47.75 13.47L49.08 13.47L52.31 22L50.76 22L50.06 20.01L46.76 20.01L46.07 22ZM48.41 15.28L47.18 18.82L49.65 18.82L48.41 15.28ZM57.95 14.66L55.31 14.66L55.31 13.47L62.08 13.47L62.08 14.66L59.42 14.66L59.42 22L57.95 22L57.95 14.66ZM71.41 22L65.83 22L65.83 13.47L71.37 13.47L71.37 14.66L67.31 14.66L67.31 17.02L70.82 17.02L70.82 18.19L67.31 18.19L67.31 20.82L71.41 20.82L71.41 22ZM78.06 22L75.61 22L75.61 13.47L78.13 13.47Q79.26 13.47 80.13 13.97Q81.01 14.48 81.49 15.40Q81.97 16.33 81.97 17.52L81.97 17.52L81.97 17.95Q81.97 19.16 81.49 20.08Q81.00 21.00 80.11 21.50Q79.22 22 78.06 22L78.06 22ZM77.09 14.66L77.09 20.82L78.06 20.82Q79.22 20.82 79.85 20.09Q80.47 19.36 80.48 17.99L80.48 17.99L80.48 17.52Q80.48 16.13 79.88 15.40Q79.27 14.66 78.13 14.66L78.13 14.66L77.09 14.66Z" fill="#FFFFFF"/><path class="svg__text" d="M109.63 22L107.20 22L110.91 13.60L113.25 13.60L116.97 22L114.50 22L113.84 20.37L110.29 20.37L109.63 22ZM112.06 15.93L110.98 18.61L113.14 18.61L112.06 15.93ZM123.45 22L121.12 22L121.12 13.60L123.08 13.60L126.79 18.07L126.79 13.60L129.11 13.60L129.11 22L127.16 22L123.45 17.52L123.45 22ZM138.25 22L134.28 22L134.28 13.60L138.25 13.60Q139.63 13.60 140.70 14.12Q141.76 14.63 142.35 15.58Q142.94 16.53 142.94 17.80L142.94 17.80Q142.94 19.07 142.35 20.02Q141.76 20.97 140.70 21.48Q139.63 22 138.25 22L138.25 22ZM136.66 15.50L136.66 20.10L138.16 20.10Q139.23 20.10 139.89 19.49Q140.54 18.88 140.54 17.80L140.54 17.80Q140.54 16.72 139.89 16.11Q139.23 15.50 138.16 15.50L138.16 15.50L136.66 15.50Z" fill="#FFFFFF" x="107.02"/></svg>