<svg xmlns="http://www.w3.org/2000/svg" width="161.46999999999997" height="35" viewBox="0 0 161.46999999999997 35"><rect class="svg__rect" x="0" y="0" width="95.74" height="35" fill="#9BBFFF"/><rect class="svg__rect" x="93.74" y="0" width="67.72999999999999" height="35" fill="#008BFF"/><path class="svg__text" d="M15.70 22L14.22 22L14.22 13.47L19.64 13.47L19.64 14.66L15.70 14.66L15.70 17.20L19.13 17.20L19.13 18.38L15.70 18.38L15.70 22ZM29.15 22L23.80 22L23.80 13.47L25.28 13.47L25.28 20.82L29.15 20.82L29.15 22ZM38.86 22L33.28 22L33.28 13.47L38.81 13.47L38.81 14.66L34.76 14.66L34.76 17.02L38.26 17.02L38.26 18.19L34.76 18.19L34.76 20.82L38.86 20.82L38.86 22ZM44.15 22L42.42 22L45.07 17.70L42.48 13.47L44.19 13.47L45.99 16.55L47.78 13.47L49.49 13.47L46.91 17.70L49.55 22L47.82 22L45.99 18.87L44.15 22ZM56.74 22L53.63 22L53.63 13.47L56.56 13.47Q58.00 13.47 58.76 14.05Q59.52 14.63 59.52 15.78L59.52 15.78Q59.52 16.36 59.20 16.83Q58.88 17.30 58.27 17.56L58.27 17.56Q58.97 17.75 59.34 18.26Q59.72 18.78 59.72 19.51L59.72 19.51Q59.72 20.71 58.95 21.36Q58.18 22 56.74 22L56.74 22ZM55.12 18.15L55.12 20.82L56.76 20.82Q57.46 20.82 57.85 20.47Q58.24 20.13 58.24 19.51L58.24 19.51Q58.24 18.18 56.89 18.15L56.89 18.15L55.12 18.15ZM55.12 14.66L55.12 17.06L56.57 17.06Q57.26 17.06 57.65 16.75Q58.04 16.43 58.04 15.86L58.04 15.86Q58.04 15.23 57.68 14.95Q57.32 14.66 56.56 14.66L56.56 14.66L55.12 14.66ZM63.92 18.00L63.92 18.00L63.92 17.52Q63.92 16.28 64.36 15.32Q64.81 14.37 65.61 13.86Q66.42 13.35 67.46 13.35Q68.50 13.35 69.31 13.85Q70.12 14.35 70.56 15.29Q70.99 16.23 71.00 17.48L71.00 17.48L71.00 17.96Q71.00 19.21 70.57 20.16Q70.13 21.10 69.33 21.61Q68.52 22.12 67.47 22.12L67.47 22.12Q66.44 22.12 65.62 21.61Q64.81 21.10 64.37 20.17Q63.93 19.23 63.92 18.00ZM65.40 17.46L65.40 17.96Q65.40 19.36 65.95 20.13Q66.50 20.90 67.47 20.90L67.47 20.90Q68.46 20.90 68.99 20.15Q69.52 19.40 69.52 17.96L69.52 17.96L69.52 17.51Q69.52 16.09 68.98 15.34Q68.45 14.58 67.46 14.58L67.46 14.58Q66.50 14.58 65.96 15.33Q65.42 16.09 65.40 17.46L65.40 17.46ZM76.56 22L74.84 22L77.48 17.70L74.90 13.47L76.61 13.47L78.40 16.55L80.19 13.47L81.90 13.47L79.33 17.70L81.96 22L80.23 22L78.40 18.87L76.56 22Z" fill="#FFFFFF"/><path class="svg__text" d="M107.50 17.80L107.50 17.80Q107.50 16.54 108.10 15.54Q108.70 14.55 109.76 13.99Q110.83 13.43 112.18 13.43L112.18 13.43Q113.35 13.43 114.29 13.83Q115.23 14.22 115.85 14.97L115.85 14.97L114.34 16.33Q113.49 15.40 112.32 15.40L112.32 15.40Q112.30 15.40 112.30 15.40L112.30 15.40Q111.22 15.40 110.56 16.06Q109.90 16.71 109.90 17.80L109.90 17.80Q109.90 18.50 110.20 19.04Q110.50 19.59 111.04 19.89Q111.58 20.20 112.28 20.20L112.28 20.20Q112.96 20.20 113.56 19.93L113.56 19.93L113.56 17.62L115.66 17.62L115.66 21.10Q114.94 21.61 114.00 21.89Q113.07 22.17 112.13 22.17L112.13 22.17Q110.81 22.17 109.75 21.61Q108.70 21.05 108.10 20.05Q107.50 19.06 107.50 17.80ZM123.03 22L120.65 22L120.65 13.60L124.49 13.60Q125.63 13.60 126.47 13.98Q127.31 14.35 127.77 15.06Q128.22 15.76 128.22 16.71L128.22 16.71Q128.22 17.62 127.80 18.30Q127.37 18.98 126.58 19.36L126.58 19.36L128.39 22L125.85 22L124.32 19.77L123.03 19.77L123.03 22ZM123.03 15.47L123.03 17.93L124.35 17.93Q125.08 17.93 125.45 17.61Q125.82 17.29 125.82 16.71L125.82 16.71Q125.82 16.12 125.45 15.79Q125.08 15.47 124.35 15.47L124.35 15.47L123.03 15.47ZM135.39 22L133.01 22L133.01 13.60L135.39 13.60L135.39 22ZM144.54 22L140.56 22L140.56 13.60L144.54 13.60Q145.92 13.60 146.99 14.12Q148.05 14.63 148.64 15.58Q149.23 16.53 149.23 17.80L149.23 17.80Q149.23 19.07 148.64 20.02Q148.05 20.97 146.99 21.48Q145.92 22 144.54 22L144.54 22ZM142.94 15.50L142.94 20.10L144.44 20.10Q145.52 20.10 146.17 19.49Q146.83 18.88 146.83 17.80L146.83 17.80Q146.83 16.72 146.17 16.11Q145.52 15.50 144.44 15.50L144.44 15.50L142.94 15.50Z" fill="#FFFFFF" x="106.74"/></svg>