<svg xmlns="http://www.w3.org/2000/svg" width="63.02" height="35" viewBox="0 0 63.02 35"><rect class="svg__rect" x="0" y="0" width="63.02" height="35" fill="#5D9741"/><rect class="svg__rect" x="63.02" y="0" width="0" height="35" fill="#389AD5"/><path class="svg__text" d="M15.70 22L14.22 22L14.22 13.47L15.70 13.47L15.70 17.02L19.51 17.02L19.51 13.47L20.99 13.47L20.99 22L19.51 22L19.51 18.21L15.70 18.21L15.70 22ZM27.41 14.66L24.78 14.66L24.78 13.47L31.54 13.47L31.54 14.66L28.88 14.66L28.88 22L27.41 22L27.41 14.66ZM36.98 14.66L34.34 14.66L34.34 13.47L41.11 13.47L41.11 14.66L38.45 14.66L38.45 22L36.98 22L36.98 14.66ZM46.35 22L44.87 22L44.87 13.47L48.13 13.47Q49.56 13.47 50.40 14.21Q51.24 14.96 51.24 16.18L51.24 16.18Q51.24 17.44 50.42 18.13Q49.60 18.83 48.11 18.83L48.11 18.83L46.35 18.83L46.35 22ZM46.35 14.66L46.35 17.64L48.13 17.64Q48.92 17.64 49.34 17.27Q49.75 16.90 49.75 16.19L49.75 16.19Q49.75 15.50 49.33 15.09Q48.91 14.68 48.17 14.66L48.17 14.66L46.35 14.66Z" fill="#FFFFFF"/><path class="svg__text" d="" fill="#FFFFFF" x="76.02000000000001"/></svg>