<svg xmlns="http://www.w3.org/2000/svg" width="125.47" height="35" viewBox="0 0 125.47 35"><rect class="svg__rect" x="0" y="0" width="125.47" height="35" fill="#FC0029"/><rect class="svg__rect" x="125.47" y="0" width="0" height="35" fill="#389AD5"/><path class="svg__text" d="M15.69 22L14.22 22L14.22 13.47L16.14 13.47L18.60 20.01L21.06 13.47L22.97 13.47L22.97 22L21.49 22L21.49 19.19L21.64 15.43L19.12 22L18.06 22L15.55 15.43L15.69 19.19L15.69 22ZM28.49 22L26.95 22L30.17 13.47L31.50 13.47L34.73 22L33.18 22L32.49 20.01L29.18 20.01L28.49 22ZM30.83 15.28L29.60 18.82L32.07 18.82L30.83 15.28ZM40.37 14.66L37.73 14.66L37.73 13.47L44.50 13.47L44.50 14.66L41.84 14.66L41.84 22L40.37 22L40.37 14.66ZM53.83 22L48.25 22L48.25 13.47L53.79 13.47L53.79 14.66L49.74 14.66L49.74 17.02L53.24 17.02L53.24 18.19L49.74 18.19L49.74 20.82L53.83 20.82L53.83 22ZM59.51 22L58.03 22L58.03 13.47L61.03 13.47Q62.50 13.47 63.31 14.13Q64.11 14.79 64.11 16.05L64.11 16.05Q64.11 16.90 63.70 17.48Q63.28 18.06 62.55 18.37L62.55 18.37L64.46 21.92L64.46 22L62.87 22L61.16 18.71L59.51 18.71L59.51 22ZM59.51 14.66L59.51 17.52L61.03 17.52Q61.78 17.52 62.21 17.15Q62.63 16.77 62.63 16.11L62.63 16.11Q62.63 15.43 62.24 15.05Q61.85 14.68 61.07 14.66L61.07 14.66L59.51 14.66ZM70.07 22L68.59 22L68.59 13.47L70.07 13.47L70.07 22ZM75.66 22L74.12 22L77.34 13.47L78.67 13.47L81.90 22L80.35 22L79.65 20.01L76.35 20.01L75.66 22ZM78.00 15.28L76.77 18.82L79.24 18.82L78.00 15.28ZM91.21 22L85.85 22L85.85 13.47L87.34 13.47L87.34 20.82L91.21 20.82L91.21 22ZM101.18 19.16L101.18 19.16L101.18 13.47L102.65 13.47L102.65 19.18Q102.65 20.03 103.09 20.48Q103.52 20.93 104.36 20.93L104.36 20.93Q106.07 20.93 106.07 19.13L106.07 19.13L106.07 13.47L107.55 13.47L107.55 19.17Q107.55 20.53 106.68 21.32Q105.81 22.12 104.36 22.12L104.36 22.12Q102.90 22.12 102.04 21.33Q101.18 20.55 101.18 19.16ZM113.69 22L112.21 22L112.21 13.47L113.69 13.47L113.69 22Z" fill="#FFFFFF"/><path class="svg__text" d="" fill="#FFFFFF" x="138.47"/></svg>