<svg xmlns="http://www.w3.org/2000/svg" width="141.92" height="35" viewBox="0 0 141.92 35"><rect class="svg__rect" x="0" y="0" width="141.92" height="35" fill="#31C4F3"/><rect class="svg__rect" x="141.92" y="0" width="0" height="35" fill="#389AD5"/><path class="svg__text" d="M15.70 22L14.22 22L14.22 13.47L17.22 13.47Q18.69 13.47 19.50 14.13Q20.30 14.79 20.30 16.05L20.30 16.05Q20.30 16.90 19.89 17.48Q19.47 18.06 18.73 18.37L18.73 18.37L20.65 21.92L20.65 22L19.06 22L17.35 18.71L15.70 18.71L15.70 22ZM15.70 14.66L15.70 17.52L17.22 17.52Q17.97 17.52 18.39 17.15Q18.82 16.77 18.82 16.11L18.82 16.11Q18.82 15.43 18.43 15.05Q18.04 14.68 17.26 14.66L17.26 14.66L15.70 14.66ZM30.27 22L24.69 22L24.69 13.47L30.23 13.47L30.23 14.66L26.18 14.66L26.18 17.02L29.68 17.02L29.68 18.19L26.18 18.19L26.18 20.82L30.27 20.82L30.27 22ZM35.25 22L33.71 22L36.93 13.47L38.26 13.47L41.49 22L39.94 22L39.24 20.01L35.94 20.01L35.25 22ZM37.59 15.28L36.35 18.82L38.83 18.82L37.59 15.28ZM45.17 18.19L45.17 18.19L45.17 17.39Q45.17 16.19 45.60 15.27Q46.03 14.35 46.83 13.85Q47.63 13.35 48.68 13.35L48.68 13.35Q50.09 13.35 50.95 14.12Q51.81 14.89 51.95 16.29L51.95 16.29L50.48 16.29Q50.37 15.37 49.94 14.96Q49.51 14.55 48.68 14.55L48.68 14.55Q47.71 14.55 47.19 15.26Q46.67 15.96 46.66 17.33L46.66 17.33L46.66 18.09Q46.66 19.47 47.16 20.20Q47.65 20.92 48.61 20.92L48.61 20.92Q49.48 20.92 49.92 20.53Q50.36 20.14 50.48 19.22L50.48 19.22L51.95 19.22Q51.82 20.59 50.94 21.35Q50.06 22.12 48.61 22.12L48.61 22.12Q47.59 22.12 46.81 21.63Q46.03 21.15 45.61 20.26Q45.19 19.37 45.17 18.19ZM57.95 14.66L55.31 14.66L55.31 13.47L62.08 13.47L62.08 14.66L59.42 14.66L59.42 22L57.95 22L57.95 14.66ZM73.29 22L71.81 22L71.81 13.47L74.81 13.47Q76.29 13.47 77.09 14.13Q77.89 14.79 77.89 16.05L77.89 16.05Q77.89 16.90 77.48 17.48Q77.06 18.06 76.33 18.37L76.33 18.37L78.24 21.92L78.24 22L76.65 22L74.94 18.71L73.29 18.71L73.29 22ZM73.29 14.66L73.29 17.52L74.81 17.52Q75.56 17.52 75.99 17.15Q76.41 16.77 76.41 16.11L76.41 16.11Q76.41 15.43 76.02 15.05Q75.63 14.68 74.86 14.66L74.86 14.66L73.29 14.66ZM82.02 18.00L82.02 18.00L82.02 17.52Q82.02 16.28 82.46 15.32Q82.90 14.37 83.71 13.86Q84.51 13.35 85.56 13.35Q86.60 13.35 87.40 13.85Q88.21 14.35 88.65 15.29Q89.09 16.23 89.09 17.48L89.09 17.48L89.09 17.96Q89.09 19.21 88.66 20.16Q88.23 21.10 87.42 21.61Q86.62 22.12 85.57 22.12L85.57 22.12Q84.53 22.12 83.72 21.61Q82.91 21.10 82.46 20.17Q82.02 19.23 82.02 18.00ZM83.50 17.46L83.50 17.96Q83.50 19.36 84.05 20.13Q84.59 20.90 85.57 20.90L85.57 20.90Q86.55 20.90 87.08 20.15Q87.61 19.40 87.61 17.96L87.61 17.96L87.61 17.51Q87.61 16.09 87.08 15.34Q86.54 14.58 85.56 14.58L85.56 14.58Q84.59 14.58 84.05 15.33Q83.51 16.09 83.50 17.46L83.50 17.46ZM93.42 19.16L93.42 19.16L93.42 13.47L94.90 13.47L94.90 19.18Q94.90 20.03 95.33 20.48Q95.77 20.93 96.61 20.93L96.61 20.93Q98.32 20.93 98.32 19.13L98.32 19.13L98.32 13.47L99.80 13.47L99.80 19.17Q99.80 20.53 98.93 21.32Q98.06 22.12 96.61 22.12L96.61 22.12Q95.15 22.12 94.29 21.33Q93.42 20.55 93.42 19.16ZM106.05 14.66L103.41 14.66L103.41 13.47L110.18 13.47L110.18 14.66L107.52 14.66L107.52 22L106.05 22L106.05 14.66ZM119.52 22L113.94 22L113.94 13.47L119.47 13.47L119.47 14.66L115.42 14.66L115.42 17.02L118.92 17.02L118.92 18.19L115.42 18.19L115.42 20.82L119.52 20.82L119.52 22ZM125.19 22L123.71 22L123.71 13.47L126.71 13.47Q128.19 13.47 128.99 14.13Q129.79 14.79 129.79 16.05L129.79 16.05Q129.79 16.90 129.38 17.48Q128.97 18.06 128.23 18.37L128.23 18.37L130.14 21.92L130.14 22L128.56 22L126.85 18.71L125.19 18.71L125.19 22ZM125.19 14.66L125.19 17.52L126.72 17.52Q127.47 17.52 127.89 17.15Q128.31 16.77 128.31 16.11L128.31 16.11Q128.31 15.43 127.92 15.05Q127.53 14.68 126.76 14.66L126.76 14.66L125.19 14.66Z" fill="#FFFFFF"/><path class="svg__text" d="" fill="#FFFFFF" x="154.92"/></svg>