<svg xmlns="http://www.w3.org/2000/svg" width="95.22" height="35" viewBox="0 0 95.22 35"><rect class="svg__rect" x="0" y="0" width="95.22" height="35" fill="#0661AC"/><rect class="svg__rect" x="95.22" y="0" width="0" height="35" fill="#FF6A00"/><path class="svg__text" d="M15.70 22L14.22 22L14.22 13.47L17.22 13.47Q18.69 13.47 19.50 14.13Q20.30 14.79 20.30 16.05L20.30 16.05Q20.30 16.90 19.89 17.48Q19.47 18.06 18.73 18.37L18.73 18.37L20.65 21.92L20.65 22L19.06 22L17.35 18.71L15.70 18.71L15.70 22ZM15.70 14.66L15.70 17.52L17.22 17.52Q17.97 17.52 18.39 17.15Q18.82 16.77 18.82 16.11L18.82 16.11Q18.82 15.43 18.43 15.05Q18.04 14.68 17.26 14.66L17.26 14.66L15.70 14.66ZM30.27 22L24.69 22L24.69 13.47L30.23 13.47L30.23 14.66L26.18 14.66L26.18 17.02L29.68 17.02L29.68 18.19L26.18 18.19L26.18 20.82L30.27 20.82L30.27 22ZM34.03 19.42L34.03 19.42L35.52 19.42Q35.52 20.15 36.00 20.55Q36.48 20.95 37.37 20.95L37.37 20.95Q38.15 20.95 38.54 20.63Q38.93 20.32 38.93 19.80L38.93 19.80Q38.93 19.24 38.53 18.94Q38.14 18.63 37.10 18.32Q36.07 18.01 35.46 17.63L35.46 17.63Q34.30 16.90 34.30 15.72L34.30 15.72Q34.30 14.69 35.14 14.02Q35.98 13.35 37.32 13.35L37.32 13.35Q38.21 13.35 38.91 13.68Q39.61 14.01 40.00 14.61Q40.40 15.22 40.40 15.96L40.40 15.96L38.93 15.96Q38.93 15.29 38.51 14.91Q38.09 14.54 37.31 14.54L37.31 14.54Q36.58 14.54 36.18 14.85Q35.78 15.16 35.78 15.71L35.78 15.71Q35.78 16.18 36.21 16.50Q36.65 16.81 37.64 17.10Q38.64 17.40 39.24 17.78Q39.85 18.16 40.13 18.65Q40.41 19.13 40.41 19.79L40.41 19.79Q40.41 20.86 39.59 21.49Q38.77 22.12 37.37 22.12L37.37 22.12Q36.45 22.12 35.67 21.77Q34.89 21.43 34.46 20.83Q34.03 20.22 34.03 19.42ZM46.38 14.66L43.74 14.66L43.74 13.47L50.51 13.47L50.51 14.66L47.85 14.66L47.85 22L46.38 22L46.38 14.66ZM61.02 22L59.48 22L62.70 13.47L64.03 13.47L67.26 22L65.72 22L65.02 20.01L61.71 20.01L61.02 22ZM63.37 15.28L62.13 18.82L64.60 18.82L63.37 15.28ZM72.70 22L71.22 22L71.22 13.47L74.48 13.47Q75.91 13.47 76.75 14.21Q77.59 14.96 77.59 16.18L77.59 16.18Q77.59 17.44 76.77 18.13Q75.95 18.83 74.46 18.83L74.46 18.83L72.70 18.83L72.70 22ZM72.70 14.66L72.70 17.64L74.48 17.64Q75.27 17.64 75.69 17.27Q76.10 16.90 76.10 16.19L76.10 16.19Q76.10 15.50 75.68 15.09Q75.26 14.68 74.52 14.66L74.52 14.66L72.70 14.66ZM83.44 22L81.96 22L81.96 13.47L83.44 13.47L83.44 22Z" fill="#FFFFFF"/><path class="svg__text" d="" fill="#FFFFFF" x="108.22"/></svg>